# xmcd
#
# Track frame offsets:
#	150
#	26540
#	48815
#	56070
#	79755
#	109270
#	131737
#	170467
#	186017
#	206105
#	220415
#	239579
#	263782
#	279719
#
# Disc length: 3836
#
# Revision: 1
# Processed by: cddbd v1.5.1PL0 Copyright (c) Steve Scherf et al.
# Submitted via: CDex 1.51
# Normalized: r0:TRMNUM
#
DISCID=d30efa0e
DTITLE=Charles Davis and Captured Moments - Strange Boodbyes
DYEAR=1998
DGENRE=Jazz
TTITLE0=I could have lied
TTITLE1=Blues for Saliba
TTITLE2=Migratory Birds
TTITLE3=Thin Eis
TTITLE4=Der Teich des Froschkönigs
TTITLE5=Memories of a Kuckuck - Memories of Tomorrow
TTITLE6=Le Conte d'incroyable Amour
TTITLE7=Gorbi
TTITLE8=Four over Six
TTITLE9=Miles of Toskana
TTITLE10=Wüstenwind
TTITLE11=The Day the Frogs ate the Dogs
TTITLE12=Maison Blanche
TTITLE13=Two Planets
EXTD=YEAR: 1998
EXTT0=
EXTT1=
EXTT2=
EXTT3=
EXTT4=
EXTT5=
EXTT6=
EXTT7=
EXTT8=
EXTT9=
EXTT10=
EXTT11=
EXTT12=
EXTT13=
PLAYORDER=
